<svg xmlns="http://www.w3.org/2000/svg" viewBox="0 0 13.576 13.637">
  <defs>
    <style>
      .cls-1 {
        fill: #0b1f2c;
      }
    </style>
  </defs>
  <g id="phone-call" transform="translate(0 0)">
    <g id="Group_69" data-name="Group 69">
      <path id="Path_95" data-name="Path 95" class="cls-1" d="M.895,31.5A5.193,5.193,0,0,1,.5,29.278a1.928,1.928,0,0,1,.577-1.236L2.195,26.93a1.066,1.066,0,0,1,1.589,0c.309.288.6.6.906.906l.885.885a1.053,1.053,0,0,1,0,1.63c-.371.371-.721.741-1.112,1.091a.227.227,0,0,0-.062.288A6.819,6.819,0,0,0,5.39,33.34a11.639,11.639,0,0,0,2.783,2.536c.227.144.494.247.721.391a.231.231,0,0,0,.309-.062l1.112-1.112a1.036,1.036,0,0,1,1.589,0L13.7,36.888a1.081,1.081,0,0,1,0,1.63c-.329.35-.7.659-1.009,1.03a2.04,2.04,0,0,1-1.733.659,7.437,7.437,0,0,1-2.7-.8,14.835,14.835,0,0,1-4.948-3.874A13.809,13.809,0,0,1,.895,31.5Z" transform="translate(-0.492 -26.575)"/>
    </g>
  </g>
</svg>
