<svg version="1.1" id="Layer_1" xmlns="http://www.w3.org/2000/svg" xmlns:xlink="http://www.w3.org/1999/xlink" x="0px" y="0px"
  viewBox="0 0 1668 1715" style="enable-background:new 0 0 1668 1715;" xml:space="preserve">
<style type="text/css">
 .st0{fill:none;stroke:#F5F5F5;stroke-width:2.8346;stroke-miterlimit:10;}
</style>
<path class="st0" d="M1246.5,0C1013.7,0,825,188,825,420c0,41.3,6,82.4,18.1,122c3.3,23,4.9,46.3,4.9,69.5
 c0,267.7-217.8,485.5-485.5,485.5c-7.1,0-14.3-0.2-21.4-0.5c-7-0.7-14.1-1.2-21.3-1.4c-0.4,0-0.9-0.1-1.3-0.1v0.1
 c-2.8-0.1-5.7-0.1-8.5-0.1c-171.2,0-310,138.8-310,310c0,171.2,138.8,310,310,310s310-138.8,310-310c0-1.9,0-3.8-0.1-5.7l2.7-0.8
 c-2.4-20.3-3.6-40.7-3.6-61.1c0-279.8,227.7-507.5,507.5-507.5c11,0,22.1,0.4,33.1,1.1c28.6,6,57.7,9,86.9,8.9
 c232.8,0,421.5-188,421.5-420S1479.3,0,1246.5,0z"/>
</svg>