<svg xmlns="http://www.w3.org/2000/svg" viewBox="0 0 14.102 15"><defs><style>.a{opacity:0.5;}.b{fill:#0b1f2c;}</style></defs><g class="a" transform="translate(0)"><g transform="translate(0 0)"><path class="b" d="M11.985,11.9H11.94a9.412,9.412,0,0,0,3.637.915,11.145,11.145,0,0,0,.945-2.077,11.4,11.4,0,0,1-4.035.833Z" transform="translate(-2.985 -2.685)"/><path class="b" d="M13.73,9.445a10.252,10.252,0,0,0,3.5-1.23,11.685,11.685,0,0,0,.308-2.678A8.451,8.451,0,0,0,17.48,4.39a11.678,11.678,0,0,1-3.75,5.055Z" transform="translate(-3.432 -1.097)"/><path class="b" d="M12.352,10.5A11.61,11.61,0,0,1,8.1,9.7a11.618,11.618,0,0,1-2.25-1.17h0A11.64,11.64,0,0,1,.75,0,11.61,11.61,0,0,0,0,4.155V5.19A11.25,11.25,0,0,0,.247,6.57c0,.135,0,.082,0,.135a21.5,21.5,0,0,0,2.925,2.25A13.627,13.627,0,0,1,.532,7.642a10.988,10.988,0,0,0,1.65,3.3c.525.225,1.552.75,1.912.847a9.593,9.593,0,0,1-1.537-.352,11.678,11.678,0,0,0,4.627,3.48l.21.083q.51-.24,1-.525a11.7,11.7,0,0,0,4.02-3.975Z" transform="translate(0 0)"/></g></g></svg>