<svg xmlns="http://www.w3.org/2000/svg" viewBox="0 0 193.986 58.005"><defs><style>.a{fill:#ff4d00;}.b{fill:#93d500;}.c{fill:#ffa400;}.d{fill:#00a0df;}.e{fill:#081f2d;}</style></defs><g transform="translate(0)"><g transform="translate(0)"><g transform="translate(0 19.123)"><path class="a" d="M44.354,60.647a2.052,2.052,0,0,1-1.434-.584l-7.968-7.915H2.018a2.018,2.018,0,0,1,0-4.037h33.73a2.052,2.052,0,0,1,1.434.584l6.8,6.746L55.827,36.956A2.067,2.067,0,0,1,57.474,36a2,2,0,0,1,1.7.85L67.46,48.164H78.934a2.018,2.018,0,0,1,0,4.037H66.451a2.039,2.039,0,0,1-1.647-.85l-7.118-9.774L46.107,59.691a1.865,1.865,0,0,1-1.487.9A.479.479,0,0,1,44.354,60.647Z" transform="translate(0 -36)"/></g><g transform="translate(22.484 9.296)"><path class="b" d="M44.331,35.4a1.17,1.17,0,0,1-.425-.053,2.019,2.019,0,0,1-1.54-2.39A19.606,19.606,0,0,1,61.489,17.5a19.961,19.961,0,0,1,9.083,2.231,2.008,2.008,0,1,1-1.859,3.559A15.591,15.591,0,0,0,46.3,33.807,1.989,1.989,0,0,1,44.331,35.4Z" transform="translate(-42.328 -17.5)"/></g><g transform="translate(22.441 40.379)"><path class="c" d="M61.557,93.644A28.981,28.981,0,0,1,42.966,86.9a2,2,0,0,1,2.55-3.081,24.788,24.788,0,0,0,16.042,5.79A25.166,25.166,0,0,0,83.282,77.018a2.023,2.023,0,1,1,3.506,2.018A29.2,29.2,0,0,1,61.557,93.644Z" transform="translate(-42.247 -76.018)"/></g><g transform="translate(13.188)"><path class="d" d="M26.832,26.187a.9.9,0,0,1-.372-.053A1.962,1.962,0,0,1,24.866,23.8a29,29,0,0,1,53.649-9.3A2.023,2.023,0,1,1,75.01,16.52a25.023,25.023,0,0,0-46.266,8.021A1.9,1.9,0,0,1,26.832,26.187Z" transform="translate(-24.828)"/></g></g><g transform="translate(88.176 6.693)"><g transform="translate(0.531 16.998)"><path class="e" d="M178.9,60.609c0,.212-.319.531-1.009.9a4.409,4.409,0,0,1-2.5.744,1.5,1.5,0,0,1-.8-.212,3.036,3.036,0,0,1-.85-.584,3.542,3.542,0,0,1-.531-.956,6.6,6.6,0,0,1-.319-.956q-.478.876-.956,1.594c-.531.744-.9,1.062-1.169,1.062a.586.586,0,0,1-.531-.266,3.659,3.659,0,0,1-.266-.956V59.494L168.7,61.406c-.372.531-.691.744-.85.744a.586.586,0,0,1-.531-.266,3.659,3.659,0,0,1-.266-.956c0-.159-.053-.478-.053-.9V58.856a2.439,2.439,0,0,1,.053-.531c.053-.266.159-.425.425-.425a.292.292,0,0,1,.266.159,1,1,0,0,1,.106.425v.478a8.643,8.643,0,0,0,.053,1.275,2.778,2.778,0,0,0,.159.956,4.385,4.385,0,0,0,.691-.9c.425-.584.8-1.169,1.222-1.753a.768.768,0,0,1,.106-.372.379.379,0,0,1,.319-.159c.106,0,.159.053.266.159a1,1,0,0,1,.106.425v1.487a2.464,2.464,0,0,0,.212,1.115,4.364,4.364,0,0,0,.9-1.434l.478-.956c.212-.425.478-.584.744-.584.159,0,.266.212.425.584a11.894,11.894,0,0,0,.744,1.806,4.47,4.47,0,0,0,.637.691,1.133,1.133,0,0,0,.637.159,3.833,3.833,0,0,0,1.7-.425c.478-.319.956-.637,1.434-.9.106,0,.159.053.159.106A3,3,0,0,0,178.9,60.609Z" transform="translate(-167 -50.835)"/><path class="e" d="M197.708,60.75c0,.106-.212.266-.637.584a9.88,9.88,0,0,1-1.222.691,6.66,6.66,0,0,1-1.328.478,5.239,5.239,0,0,1-1.275.159,1.868,1.868,0,0,1-1.009-.478,2.476,2.476,0,0,1-.85-1.009c-.106.425-.159.691-.212.85-.106.319-.212.478-.372.478a.414.414,0,0,1-.372-.159c-.053-.053-.053-.212-.106-.425a7.259,7.259,0,0,1-.106-1.009c0-.319-.053-.584-.053-.9a3.282,3.282,0,0,0-.053-.8,4.037,4.037,0,0,0-.212-.584c0-.106.053-.159.106-.266a.406.406,0,0,1,.266-.106.568.568,0,0,1,.478.319,1.52,1.52,0,0,1,.212.9V60.7a4.165,4.165,0,0,1,.266-.744,4.587,4.587,0,0,1,.531-.85,6.956,6.956,0,0,1,.691-.637,1.41,1.41,0,0,1,.744-.266.706.706,0,0,1,.425.159c.106.106.212.212.212.319a.549.549,0,0,1-.212.425,2.323,2.323,0,0,1-.531.319,2.862,2.862,0,0,0-.691.372,2.028,2.028,0,0,0-.478.478,3.225,3.225,0,0,0,.531.956,1.464,1.464,0,0,0,1.115.584,5.883,5.883,0,0,0,1.009-.106,6.821,6.821,0,0,0,1.115-.372c.372-.159.744-.319,1.169-.531.159-.106.372-.212.531-.319h.212C197.655,60.59,197.708,60.643,197.708,60.75Z" transform="translate(-177.736 -50.976)"/><path class="e" d="M209.465,58.25a.291.291,0,0,1-.212.319.788.788,0,0,1-.372.053c.053.159.106.372.159.584a2.382,2.382,0,0,1,.053.584,2.9,2.9,0,0,1-.478,1.54,1.521,1.521,0,0,1-1.275.85,1.4,1.4,0,0,1-1.009-.372,1.51,1.51,0,0,1-.478-.9,4.9,4.9,0,0,1-.053-.8,3.517,3.517,0,0,1,.053-.8c.053-.212.106-.478.159-.744a1.631,1.631,0,0,1,.372-.637c.159-.212.319-.319.425-.319a.282.282,0,0,1,.319.319,2.391,2.391,0,0,1-.106.425c-.053.159-.159.319-.212.478a3.3,3.3,0,0,0-.212.85,6.773,6.773,0,0,0-.053,1.009.682.682,0,0,0,.212.531.725.725,0,0,0,.584.212q.319,0,.637-.478a1.877,1.877,0,0,0,.319-1.009,4.6,4.6,0,0,0-.053-.956,3.3,3.3,0,0,0-.159-.531c-.212-.053-.372-.106-.425-.212a.384.384,0,0,1-.212-.319c0-.319.106-.531.372-.531h.159a.706.706,0,0,1,.425.159,1.58,1.58,0,0,1,.372.425c.159,0,.319.053.478.053A.228.228,0,0,1,209.465,58.25Z" transform="translate(-185.19 -50.601)"/><path class="e" d="M225.7,61.043q0,.08-.319.319c-.159.106-.425.266-.744.478a6.734,6.734,0,0,1-1.222.637,2.85,2.85,0,0,1-1.009.212q-.876,0-1.115-.319c-.212-.212-.266-.637-.266-1.275V60.034c-.159.266-.319.531-.478.744a9.012,9.012,0,0,0-.531.744,3.171,3.171,0,0,1-.85.85,2.142,2.142,0,0,1-1.169.319,1.38,1.38,0,0,1-1.062-.531,1.751,1.751,0,0,1-.531-.956.755.755,0,0,1,.106-.319c.106-.106.212-.212.319-.212a.823.823,0,0,1,.425.106.765.765,0,0,1,.106.478c0,.584.266.85.8.85a1.314,1.314,0,0,0,.8-.372,7.786,7.786,0,0,0,.8-.9c.212-.266.372-.584.584-.9a7.8,7.8,0,0,0,.478-.9.544.544,0,0,1,.266-.319.755.755,0,0,1,.319-.106c.212,0,.372.053.425.159a1.061,1.061,0,0,1,.106.478,4.931,4.931,0,0,1-.053.691,5.869,5.869,0,0,0-.053.85,4.482,4.482,0,0,0,.106,1.009.491.491,0,0,0,.531.319,2.406,2.406,0,0,0,.85-.159,4.254,4.254,0,0,0,.9-.425c.425-.212.691-.372.8-.425a1.223,1.223,0,0,1,.478-.159C225.643,60.778,225.7,60.831,225.7,61.043Z" transform="translate(-190.16 -51.163)"/><path class="e" d="M241.98,60.215c0,.053-.106.212-.372.478a5.392,5.392,0,0,1-.956.691,7.34,7.34,0,0,1-1.487.691,4.376,4.376,0,0,1-1.381.212.982.982,0,0,1-.9-.584,4.073,4.073,0,0,1-.319-1.806,6.752,6.752,0,0,1-.691,1.169c-.425.584-.85.9-1.222.9a.838.838,0,0,1-.691-.266,2.064,2.064,0,0,1-.159-.956,4.525,4.525,0,0,1,.584-1.965A2.167,2.167,0,0,1,236.19,57.4a1.817,1.817,0,0,1,.584.053,1.741,1.741,0,0,1,.425.319c.106,0,.159.053.266.212a.789.789,0,0,1,.106.478,9.149,9.149,0,0,1-.053,1.062c0,.478-.053.744-.053.9a2.588,2.588,0,0,0,.106.8.676.676,0,0,0,.637.372,3.517,3.517,0,0,0,.8-.053,5.325,5.325,0,0,0,1.328-.531,12.36,12.36,0,0,0,1.115-.8c.159-.159.266-.212.319-.212C241.874,59.9,241.98,60,241.98,60.215Zm-5.524-1.7c0-.053.053-.106.053-.212,0-.212-.106-.319-.266-.319-.319,0-.691.266-1.062.85a3.066,3.066,0,0,0-.584,1.381,1.471,1.471,0,0,0,.053.478c.053.159.053.212.159.212q.319,0,1.115-1.434C236.084,59.206,236.243,58.887,236.456,58.515Z" transform="translate(-198.317 -50.601)"/><path class="e" d="M268.515,63.262v.319a3.059,3.059,0,0,1-.053.8c-.053.159-.106.478-.212.85a3.142,3.142,0,0,1-1.062,1.594,2.385,2.385,0,0,1-1.434.531,1.9,1.9,0,0,1-1.381-.478,1.131,1.131,0,0,1-.372-.85c0-.266.106-.425.266-.425.053,0,.159.053.212.212.053.106.159.266.212.372a3.207,3.207,0,0,0,.425.425.954.954,0,0,0,.584.159,1.522,1.522,0,0,0,1.115-.425,4.422,4.422,0,0,0,.744-1.115,2.877,2.877,0,0,0,.212-.8,5.461,5.461,0,0,0,.053-.9c0-.691-.159-1.115-.531-1.275-.106-.053-.159-.106-.266-.106s-.212-.053-.319-.053h-.372a.276.276,0,0,1-.212-.106c-.053-.053-.053-.106-.053-.212a.245.245,0,0,1,.159-.266,2.021,2.021,0,0,0,.691-.478,1.3,1.3,0,0,0,.266-.8,1.179,1.179,0,0,0-.053-.478.388.388,0,0,0-.372-.319,1.183,1.183,0,0,0-.9.584c-.106.106-.212.372-.425.691-.053.053-.053.106-.106.159s-.106.053-.212.053h-.159v-.212a2.45,2.45,0,0,1,1.859-1.912,1.072,1.072,0,0,1,.956.478,1.52,1.52,0,0,1,.212.9,1.219,1.219,0,0,1-.212.744,1.688,1.688,0,0,1-.584.637,1.392,1.392,0,0,1,1.009.478A1.973,1.973,0,0,1,268.515,63.262Z" transform="translate(-212.475 -51.257)"/><path class="e" d="M281.393,62.178a8.781,8.781,0,0,1-.106,1.54,11.5,11.5,0,0,1-.425,1.275,4.214,4.214,0,0,1-.9,1.328,2.236,2.236,0,0,1-1.647.744,2.126,2.126,0,0,1-1.434-.478,1.088,1.088,0,0,1-.478-.8c0-.266.106-.372.319-.372a.292.292,0,0,1,.266.159.734.734,0,0,0,.159.212,1.087,1.087,0,0,0,.425.425,1.071,1.071,0,0,0,.584.159,2.03,2.03,0,0,0,1.328-.531,2.974,2.974,0,0,0,.9-1.275A10.282,10.282,0,0,0,280.7,63.4a5.163,5.163,0,0,0,.053-.956,6.932,6.932,0,0,0-.053-.9c-.053-.425-.106-.691-.106-.744a2.088,2.088,0,0,1-.691,1.115,1.954,1.954,0,0,1-1.115.425,1.577,1.577,0,0,1-.956-.266,1.173,1.173,0,0,1-.425-1.062,2.576,2.576,0,0,1,.531-1.54,2.706,2.706,0,0,1,1.7-1.169h.212c.159,0,.266.053.266.212,0,.106-.159.212-.478.425-.159.106-.319.159-.478.266a1.813,1.813,0,0,0-.744.9,2.084,2.084,0,0,0-.212.956,1,1,0,0,0,.106.425.518.518,0,0,0,.478.212,1.364,1.364,0,0,0,1.009-.531,4.815,4.815,0,0,0,.584-.85,2.19,2.19,0,0,0-.053-.637c0-.159-.053-.319-.053-.531,0-.266.159-.372.425-.372.106,0,.266.372.478,1.169A13.836,13.836,0,0,1,281.393,62.178Z" transform="translate(-218.289 -51.023)"/><path class="e" d="M294.965,58.25a.291.291,0,0,1-.212.319.788.788,0,0,1-.372.053c.053.159.106.372.159.584a2.383,2.383,0,0,1,.053.584,2.9,2.9,0,0,1-.478,1.54,1.521,1.521,0,0,1-1.275.85,1.4,1.4,0,0,1-1.009-.372,1.51,1.51,0,0,1-.478-.9,4.9,4.9,0,0,1-.053-.8,3.517,3.517,0,0,1,.053-.8c.053-.212.106-.478.159-.744a1.631,1.631,0,0,1,.372-.637c.159-.212.319-.319.425-.319a.282.282,0,0,1,.319.319,2.392,2.392,0,0,1-.106.425c-.053.159-.159.319-.212.478a3.3,3.3,0,0,0-.212.85,6.771,6.771,0,0,0-.053,1.009.682.682,0,0,0,.212.531.725.725,0,0,0,.584.212q.319,0,.637-.478a1.877,1.877,0,0,0,.319-1.009,4.6,4.6,0,0,0-.053-.956,3.3,3.3,0,0,0-.159-.531c-.212-.053-.372-.106-.425-.212a.384.384,0,0,1-.212-.319c0-.319.106-.531.372-.531h.159a.706.706,0,0,1,.425.159,1.58,1.58,0,0,1,.372.425c.159,0,.319.053.478.053A.228.228,0,0,1,294.965,58.25Z" transform="translate(-225.274 -50.601)"/><path class="e" d="M306.318,58.815a4.2,4.2,0,0,1-.478,1.859c-.372.691-.8,1.062-1.275,1.062a1.269,1.269,0,0,1-.744-.266.932.932,0,0,1-.319-.8q0-.8.319-.8c.212,0,.319.106.319.266v.425a.755.755,0,0,0,.106.319.292.292,0,0,0,.266.159.883.883,0,0,0,.744-.531,3.517,3.517,0,0,0,.372-1.806.853.853,0,0,0-.266-.584.761.761,0,0,0-.531-.212.8.8,0,0,0-.584.212,2.126,2.126,0,0,0-.637.584l-.106.478c-.053.531-.106,1.062-.106,1.594v1.753a10.666,10.666,0,0,0,.053,1.275,4.682,4.682,0,0,0,.106.8,1.29,1.29,0,0,0,.212.584.573.573,0,0,1,.106.372,1.06,1.06,0,0,1-.106.478.686.686,0,0,1-.425.106.5.5,0,0,1-.425-.319,2.022,2.022,0,0,1-.159-.85l-.159-2.443V60.3a12.471,12.471,0,0,1,.053-1.381c.106-1.169.159-1.806.159-1.806a.674.674,0,0,0-.053-.319c-.053-.106-.053-.266-.106-.372a.449.449,0,0,1,.106-.319.406.406,0,0,1,.266-.106.291.291,0,0,1,.319.212.706.706,0,0,1,.159.425v1.222a1.248,1.248,0,0,1,.531-.425,1.22,1.22,0,0,1,.744-.212,1.541,1.541,0,0,1,.956.425A1.287,1.287,0,0,1,306.318,58.815Z" transform="translate(-230.572 -49.945)"/><path class="e" d="M317.965,58.25a.291.291,0,0,1-.212.319.788.788,0,0,1-.372.053c.053.159.106.372.159.584a2.383,2.383,0,0,1,.053.584,2.9,2.9,0,0,1-.478,1.54,1.521,1.521,0,0,1-1.275.85,1.4,1.4,0,0,1-1.009-.372,1.51,1.51,0,0,1-.478-.9,4.9,4.9,0,0,1-.053-.8,3.517,3.517,0,0,1,.053-.8c.053-.212.106-.478.159-.744a1.631,1.631,0,0,1,.372-.637c.159-.212.319-.319.425-.319a.282.282,0,0,1,.319.319,2.391,2.391,0,0,1-.106.425c-.053.159-.159.319-.212.478a3.3,3.3,0,0,0-.212.85,6.767,6.767,0,0,0-.053,1.009.682.682,0,0,0,.212.531.725.725,0,0,0,.584.212q.319,0,.637-.478a1.877,1.877,0,0,0,.319-1.009,4.6,4.6,0,0,0-.053-.956,3.307,3.307,0,0,0-.159-.531c-.212-.053-.372-.106-.425-.212a.384.384,0,0,1-.212-.319c0-.319.106-.531.372-.531h.159a.706.706,0,0,1,.425.159,1.58,1.58,0,0,1,.372.425c.159,0,.319.053.478.053A.228.228,0,0,1,317.965,58.25Z" transform="translate(-236.057 -50.601)"/><path class="e" d="M328.043,54.721a2.953,2.953,0,0,1-.372,1.594,1.274,1.274,0,0,1-1.169.744,1.634,1.634,0,0,1-1.009-.319,1.735,1.735,0,0,1-.584-.956A10.747,10.747,0,0,1,324.7,54.4a14.418,14.418,0,0,1-.053-1.487l-.159.159a.4.4,0,0,1-.266.053.4.4,0,0,1-.212-.106.212.212,0,0,1-.106-.212c0-.106.106-.266.372-.478.106-.106.266-.212.425-.372,0-.053,0-.372-.053-.9a10.809,10.809,0,0,1-.053-1.169,5.629,5.629,0,0,1,.372-2.6,1.164,1.164,0,0,1,1.062-.584.861.861,0,0,1,.744.372,4.149,4.149,0,0,1,.531,1.594c0,.106.053.212.053.319V49.3a3.1,3.1,0,0,1-.691,2.018,4.2,4.2,0,0,1-1.275,1.115v1.275a6.1,6.1,0,0,0,.053,1.009l.159.956a.738.738,0,0,0,.266.531.8.8,0,0,0,.584.212.718.718,0,0,0,.637-.478,2.678,2.678,0,0,0,.159-1.009,1.726,1.726,0,0,0-.372-1.062,1.023,1.023,0,0,0-.8-.531,1.035,1.035,0,0,1-.425-.053.245.245,0,0,1-.159-.266.755.755,0,0,1,.106-.319.292.292,0,0,1,.266-.159,2.371,2.371,0,0,1,2.178,2.178Zm-1.381-5.843a9.118,9.118,0,0,0-.212-.956c-.159-.372-.266-.531-.478-.531s-.372.159-.425.531a7.165,7.165,0,0,0-.159,1.806v.8c-.053.691-.053,1.062-.053,1.169a3.64,3.64,0,0,0,.9-.9,2.548,2.548,0,0,0,.531-1.487A2.4,2.4,0,0,0,326.662,48.878Z" transform="translate(-240.558 -45.585)"/><path class="e" d="M339.734,45.344a5.649,5.649,0,0,1-.478,1.806c-.319.85-.584,1.222-.744,1.222s-.212-.106-.212-.266c.106-.425.266-.85.372-1.222a4.3,4.3,0,0,0,.212-1.009.574.574,0,0,0-.159-.372c-.159-.159-.212-.266-.159-.372a.538.538,0,0,1,.212-.372.459.459,0,0,1,.319-.159.706.706,0,0,1,.425.159A1.307,1.307,0,0,1,339.734,45.344Z" transform="translate(-247.309 -44.6)"/><path class="e" d="M355.974,60.115c0,.053-.159.212-.425.478a7.053,7.053,0,0,1-.85.637,4.506,4.506,0,0,1-2.39.85,1.723,1.723,0,0,1-1.275-.478,1.529,1.529,0,0,1-.478-1.115v-.8c-.053.053-.106.053-.159.159l-.159.159a.706.706,0,0,0-.159.372,1.863,1.863,0,0,1-.266.425,5.327,5.327,0,0,1-.85.956,1.81,1.81,0,0,1-1.169.372,1.38,1.38,0,0,1-1.062-.531,1.751,1.751,0,0,1-.531-.956.755.755,0,0,1,.106-.319.437.437,0,0,1,.319-.212.823.823,0,0,1,.425.106.765.765,0,0,1,.106.478c0,.584.266.85.8.85a1.463,1.463,0,0,0,.8-.425,2.738,2.738,0,0,0,.691-.9,1.036,1.036,0,0,1-.425.053H348.7a1.012,1.012,0,0,1-.956-.531,1.834,1.834,0,0,1-.266-.956,1.579,1.579,0,0,1,.425-1.062,1.653,1.653,0,0,1,1.169-.425,1.871,1.871,0,0,1,1.222.319,1.168,1.168,0,0,1,.319.9v.212a.674.674,0,0,1-.053.319,12.312,12.312,0,0,1,.425-1.169c.106-.266.266-.425.372-.425a.376.376,0,0,1,.319.319s-.053.478-.212,1.381c-.053.478-.106.8-.106.9a1.534,1.534,0,0,0,.266,1.009.9.9,0,0,0,.691.212,4.53,4.53,0,0,0,2.018-.584,10.681,10.681,0,0,0,.9-.584,2.148,2.148,0,0,1,.584-.319A.454.454,0,0,1,355.974,60.115Zm-6.055-1.487c0-.425-.319-.691-.956-.691a1.1,1.1,0,0,0-.637.266c-.212.212-.319.372-.319.531a1.071,1.071,0,0,0,.159.584.518.518,0,0,0,.478.212h.691a1.642,1.642,0,0,0,.425-.106A1.437,1.437,0,0,0,349.918,58.628Z" transform="translate(-251.012 -50.554)"/></g><path class="e" d="M172.905,23.581V19.915a1.25,1.25,0,0,1,.106-.425c.053-.106.159-.266.212-.372a.856.856,0,0,1,.372-.212.9.9,0,0,1,.85,0,1.653,1.653,0,0,1,.319.212.856.856,0,0,1,.212.372,1,1,0,0,1,.106.425v3.665l5.312-4.462a1.119,1.119,0,0,1,.691-.266,1,1,0,0,1,.425.106,1.653,1.653,0,0,1,.319.212.856.856,0,0,1,.212.372,1,1,0,0,1,.106.425.891.891,0,0,1-.319.744l-4.621,3.931,4.674,3.984a1.081,1.081,0,0,1,.319.8,1.25,1.25,0,0,1-.106.425,1.332,1.332,0,0,1-.212.372,1.111,1.111,0,0,1-.319.212.98.98,0,0,1-1.115-.159l-4.834-4.143-.425.372v2.921a1.251,1.251,0,0,1-.106.425,1.332,1.332,0,0,1-.212.372,1.111,1.111,0,0,1-.319.212.9.9,0,0,1-.85,0c-.106-.053-.266-.159-.372-.212a.856.856,0,0,1-.212-.372,1,1,0,0,1-.106-.425V26.5l-.425-.372-4.834,4.143a1.119,1.119,0,0,1-.691.266,1,1,0,0,1-.425-.106,1.652,1.652,0,0,1-.319-.212.856.856,0,0,1-.212-.372,1,1,0,0,1-.106-.425,1.081,1.081,0,0,1,.319-.8l4.674-3.984-4.621-3.931a1.081,1.081,0,0,1-.319-.8,1.251,1.251,0,0,1,.106-.425,1.332,1.332,0,0,1,.212-.372,1.111,1.111,0,0,1,.319-.212,1,1,0,0,1,.425-.106,1.269,1.269,0,0,1,.744.266Z" transform="translate(-166 -15.507)"/><path class="e" d="M211.621,30.58a.891.891,0,0,1-.744-.319,1.049,1.049,0,0,1-.319-.744,4.742,4.742,0,0,1-1.54.8,6.065,6.065,0,0,1-1.753.266,5.512,5.512,0,0,1-4.94-3.293,5.555,5.555,0,0,1-.425-2.072V20.062a.964.964,0,0,1,.319-.744,1.081,1.081,0,0,1,.8-.319.964.964,0,0,1,.744.319,1.049,1.049,0,0,1,.319.744v5.152a3.651,3.651,0,0,0,.266,1.275,3.4,3.4,0,0,0,.691,1.009,3.114,3.114,0,0,0,1.009.691,3.21,3.21,0,0,0,1.275.266,3.651,3.651,0,0,0,1.275-.266,4.556,4.556,0,0,0,1.062-.691,3.114,3.114,0,0,0,.691-1.009,3.21,3.21,0,0,0,.266-1.275V20.062a.964.964,0,0,1,.319-.744,1.081,1.081,0,0,1,.8-.319.964.964,0,0,1,.744.319,1.049,1.049,0,0,1,.319.744v9.455a.964.964,0,0,1-.319.744A1.3,1.3,0,0,1,211.621,30.58Z" transform="translate(-182.831 -15.6)"/><path class="e" d="M232.393,18.853a3.7,3.7,0,0,1,1.328.266,3.418,3.418,0,0,1,1.859,1.859,3.7,3.7,0,0,1,.266,1.328,3.562,3.562,0,0,1-.584,1.965,6.369,6.369,0,0,1,.584.637,4.43,4.43,0,0,1,.425.637,3.687,3.687,0,0,1,.266.691,3.613,3.613,0,0,1,.106.8,3.7,3.7,0,0,1-.266,1.328,3.418,3.418,0,0,1-1.859,1.859,3.7,3.7,0,0,1-1.328.266h-4.728a1,1,0,0,1-.425-.106,1.652,1.652,0,0,1-.319-.212.856.856,0,0,1-.212-.372,1,1,0,0,1-.106-.425V19.915a1.25,1.25,0,0,1,.106-.425,1.331,1.331,0,0,1,.212-.372,1.111,1.111,0,0,1,.319-.212,1,1,0,0,1,.425-.106h3.931Zm0,4.728a1.551,1.551,0,0,0,.478-.106,1.864,1.864,0,0,0,.425-.266,1.157,1.157,0,0,0,.266-.425,1.572,1.572,0,0,0,.106-.531,1.551,1.551,0,0,0-.106-.478,1.864,1.864,0,0,0-.266-.425,1.157,1.157,0,0,0-.425-.266,1.551,1.551,0,0,0-.478-.106h-2.868v2.55h2.868Zm.744,4.728a1.551,1.551,0,0,0,.478-.106,1.863,1.863,0,0,0,.425-.266,1.157,1.157,0,0,0,.266-.425,1.551,1.551,0,0,0,.106-.478,1.888,1.888,0,0,0-.106-.531,1.114,1.114,0,0,0-.691-.691,1.551,1.551,0,0,0-.478-.106h-3.665v2.55h3.665Z" transform="translate(-194.785 -15.507)"/><path class="e" d="M259.155,29.517V29.3a5.388,5.388,0,0,1-1.7.956,5.866,5.866,0,0,1-1.965.319,5.784,5.784,0,0,1-4.09-9.88,5.79,5.79,0,0,1,9.88,4.09v4.728a.964.964,0,0,1-.319.744,1.049,1.049,0,0,1-.744.319,1.081,1.081,0,0,1-.8-.319A1.269,1.269,0,0,1,259.155,29.517Zm-3.665-8.393a4.055,4.055,0,0,0-1.434.266,3.518,3.518,0,0,0-1.169.8,3.784,3.784,0,0,0-.8,1.169,3.146,3.146,0,0,0-.266,1.434,4.554,4.554,0,0,0,.266,1.434,3.518,3.518,0,0,0,.8,1.169,3.784,3.784,0,0,0,1.169.8,3.285,3.285,0,0,0,1.434.266,4.293,4.293,0,0,0,1.434-.266,3.051,3.051,0,0,0,1.169-.8,4.544,4.544,0,0,0,.8-1.169,3.056,3.056,0,0,0,.266-1.381,3.99,3.99,0,0,0-.266-1.381,3.518,3.518,0,0,0-.8-1.169,3.783,3.783,0,0,0-1.169-.8A3.382,3.382,0,0,0,255.49,21.125Z" transform="translate(-205.24 -15.6)"/><path class="e" d="M285.564,27.333a1.127,1.127,0,0,1,.8,1.912,5.482,5.482,0,0,1-3.771,1.434,5.784,5.784,0,0,1-4.09-9.88,5.616,5.616,0,0,1,4.09-1.7,5.482,5.482,0,0,1,3.771,1.434.956.956,0,0,1,.372.8,1.089,1.089,0,0,1-1.116,1.115,1.119,1.119,0,0,1-.691-.266,4.25,4.25,0,0,0-1.115-.691,3.214,3.214,0,0,0-1.275-.212,4.293,4.293,0,0,0-1.434.266,3.518,3.518,0,0,0-1.169.8,3.784,3.784,0,0,0-.8,1.169,3.146,3.146,0,0,0-.266,1.434,4.294,4.294,0,0,0,.266,1.434,3.8,3.8,0,0,0,1.965,1.965,3.146,3.146,0,0,0,1.434.266,3.214,3.214,0,0,0,1.275-.212,4.25,4.25,0,0,0,1.115-.691A.612.612,0,0,1,285.564,27.333Z" transform="translate(-217.945 -15.647)"/><path class="e" d="M305.593,18.853a3.7,3.7,0,0,1,1.328.266,3.418,3.418,0,0,1,1.859,1.859,3.7,3.7,0,0,1,.266,1.328,3.562,3.562,0,0,1-.584,1.965,6.368,6.368,0,0,1,.584.637,4.427,4.427,0,0,1,.425.637,3.69,3.69,0,0,1,.266.691,4.1,4.1,0,0,1,.106.8,3.7,3.7,0,0,1-.266,1.328,3.418,3.418,0,0,1-1.859,1.859,3.7,3.7,0,0,1-1.328.266h-4.728a1,1,0,0,1-.425-.106,1.653,1.653,0,0,1-.319-.212.856.856,0,0,1-.212-.372,1,1,0,0,1-.106-.425V19.915a1.251,1.251,0,0,1,.106-.425,1.333,1.333,0,0,1,.212-.372,1.111,1.111,0,0,1,.319-.212,1,1,0,0,1,.425-.106h3.931Zm0,4.728a1.551,1.551,0,0,0,.478-.106,1.863,1.863,0,0,0,.425-.266,1.156,1.156,0,0,0,.266-.425,1.571,1.571,0,0,0,.106-.531,1.551,1.551,0,0,0-.106-.478,1.863,1.863,0,0,0-.266-.425,1.156,1.156,0,0,0-.425-.266,1.551,1.551,0,0,0-.478-.106h-2.868v2.55h2.868Zm.744,4.728a1.551,1.551,0,0,0,.478-.106,1.864,1.864,0,0,0,.425-.266,1.156,1.156,0,0,0,.266-.425,1.551,1.551,0,0,0,.106-.478,1.887,1.887,0,0,0-.106-.531,1.114,1.114,0,0,0-.691-.691,1.551,1.551,0,0,0-.478-.106h-3.665v2.55h3.665Z" transform="translate(-229.103 -15.507)"/><path class="e" d="M326.35,13.875a1.275,1.275,0,1,1-2.178-.9,1.275,1.275,0,0,1,2.178.9Zm-2.337,12.589V17.009a1.081,1.081,0,0,1,.319-.8,1.049,1.049,0,0,1,.744-.319.964.964,0,0,1,.744.319,1.081,1.081,0,0,1,.319.8v9.455a1.081,1.081,0,0,1-.319.8,1.049,1.049,0,0,1-.744.319.964.964,0,0,1-.744-.319A1.081,1.081,0,0,1,324.012,26.464Z" transform="translate(-239.98 -12.6)"/><path class="e" d="M350.667,29.417a1.081,1.081,0,0,1-.319.8,1.049,1.049,0,0,1-.744.319.891.891,0,0,1-.744-.319,1.081,1.081,0,0,1-.319-.8v-5.9a2.637,2.637,0,0,0-.744-1.753,2.1,2.1,0,0,0-.8-.531,3.1,3.1,0,0,0-.956-.212,2.507,2.507,0,0,0-2.284,1.54,3.1,3.1,0,0,0-.212.956v5.9a1.081,1.081,0,0,1-.319.8,1.049,1.049,0,0,1-.744.319,1.089,1.089,0,0,1-1.115-1.115v-5.9a2.083,2.083,0,0,0-.212-.956,2.615,2.615,0,0,0-.531-.8,2.977,2.977,0,0,0-.8-.531,3.1,3.1,0,0,0-.956-.212,2.508,2.508,0,0,0-2.284,1.54,3.1,3.1,0,0,0-.212.956v5.9a1.081,1.081,0,0,1-.319.8,1.049,1.049,0,0,1-.744.319,1.089,1.089,0,0,1-1.115-1.115V19.962a.964.964,0,0,1,.319-.744,1.049,1.049,0,0,1,.744-.319.847.847,0,0,1,.637.212,1.214,1.214,0,0,1,.372.531,4.585,4.585,0,0,1,2.5-.744,5.028,5.028,0,0,1,1.965.425,4.927,4.927,0,0,1,1.594,1.222,4.453,4.453,0,0,1,3.559-1.647,4.235,4.235,0,0,1,1.806.372,4.779,4.779,0,0,1,2.5,2.5,4.236,4.236,0,0,1,.372,1.806v5.843h.106Z" transform="translate(-244.855 -15.554)"/></g></g></svg>